<svg viewBox="0 50 800 550" xmlns="http://www.w3.org/2000/svg" preserveAspectRatio="xMinYMin meet">
 <!-- Created with SVG-edit - http://svg-edit.googlecode.com/ -->
 <title>overview</title>
 <g>
  <title>Layer 1</title>
  <line stroke="#7c0000" id="svg_50" fill="none" stroke-width="5" stroke-linejoin="round" stroke-linecap="null" x1="647.490283" y1="299.565563" x2="647.490283" y2="418.594246" transform="rotate(89.3905 647.49 359.08)"/>
  <path stroke="#000000" id="svg_61" d="m695.585022,405.585083l16.875549,-122.005096l56.250244,0l16.874207,122.005096l-90,0z" stroke-linecap="null" stroke-linejoin="round" stroke-dasharray="null" stroke-width="2" fill="#cccccc"/>
  <line stroke="#007f00" id="svg_53" fill="none" stroke-width="5" stroke-linejoin="round" stroke-linecap="null" x1="740" y1="408.500002" x2="740" y2="497.500002"/>
  <line stroke="#00007f" fill="none" stroke-width="4" stroke-linejoin="round" stroke-linecap="null" x1="339.000007" y1="358" x2="252.999995" y2="358" id="svg_21"/>
  <line fill="none" stroke="#7c0000" stroke-width="5" stroke-linejoin="round" stroke-linecap="null" x1="458.012443" y1="290.645539" x2="458.012443" y2="424.694652" id="svg_19" transform="rotate(89.3905 458.012 357.67)"/>
  <line fill="none" stroke="#007f00" stroke-width="5" stroke-linejoin="round" stroke-linecap="null" x1="374" y1="410" x2="374" y2="459.999999" id="svg_8"/>
  <g id="bhkw">
   <rect fill="#cccccc" stroke="#000000" stroke-width="2" x="331" y="282" width="86" height="130" id="bhkw_back" rx="11" ry="11"/>
   <rect fill="#e5e5e5" stroke="#000000" stroke-width="2" stroke-linejoin="round" stroke-linecap="null" x="338" y="276.5" width="72" height="139" rx="4" ry="4" id="bhkw_front"/>
  </g>
  <line fill="none" stroke="#7f0000" stroke-width="0" stroke-linejoin="round" stroke-linecap="null" x1="355.000029" y1="461" x2="714.000007" y2="461" id="svg_7"/>
  <line fill="none" stroke="#7f0000" stroke-width="0" stroke-linejoin="round" stroke-linecap="null" x1="721" y1="420" x2="721" y2="461.999999" id="svg_9"/>
  <path fill="#aaffaa" stroke="#007f00" stroke-width="2" stroke-linejoin="round" stroke-linecap="null" d="m374,444.807678l-10,10.384644l20,0l-10,-10.384644z" transform="rotate(1.68468 374 450)" id="svg_39"/>
  <line fill="none" stroke="#007f00" stroke-width="5" stroke-linejoin="round" stroke-linecap="null" x1="374" y1="458" x2="374" y2="500" id="svg_10"/>
  <line fill="none" stroke="#00007f" stroke-width="4" stroke-linejoin="round" stroke-linecap="null" x1="252" y1="191.999997" x2="252" y2="358.999998" id="svg_22"/>
  <ellipse fill="none" stroke="#00007f" stroke-width="4" stroke-linejoin="round" stroke-linecap="null" cx="65" cy="192" id="svg_25" ry="1"/>
  <line fill="none" stroke="#7f0000" stroke-width="4" stroke-linejoin="round" stroke-linecap="null" x1="567" y1="279" x2="567" y2="193" id="svg_27"/>
  <path fill="#aaaaff" stroke="#00007f" stroke-width="2" stroke-linejoin="round" stroke-linecap="null" d="m252,295.807678l-10,10.384644l20,0l-10,-10.384644z" id="svg_34"/>
  <path fill="#ffaaaa" stroke="#7f0000" stroke-width="2" stroke-linejoin="round" stroke-linecap="null" d="m470,351.807678l-10,10.384644l20,0l-10,-10.384644z" id="svg_3_35" transform="rotate(90 470 357)"/>
  <path fill="#ffaaaa" stroke="#7f0000" stroke-width="2" stroke-linejoin="round" stroke-linecap="null" d="m567,231.807693l-10,10.384613l20,0l-10,-10.384613z" id="svg_42"/>
  <text fill="#999999" stroke="#7f0000" stroke-width="0" stroke-linejoin="round" stroke-linecap="null" x="571" y="381.5" font-size="24" font-family="Sans-serif" text-anchor="middle" xml:space="preserve" id="svg_45">HS</text>
  <text fill="#007f00" stroke="#7f0000" stroke-width="0" stroke-linejoin="round" stroke-linecap="null" x="377.784169" y="536.546813" font-size="24" font-family="Sans-serif" text-anchor="middle" xml:space="preserve" font-weight="normal" font-style="normal" transform="matrix(0.714147 0 0 0.714147 112.207 137.825)" id="bhkw_gas_input">bhkw_gas_input</text>
  <text transform="matrix(0.902778 0 0 0.851852 17.6944 61.8518)" fill="#999999" stroke="#7f0000" stroke-width="0" stroke-linejoin="round" stroke-linecap="null" x="394.123075" y="400.76087" font-size="24" font-family="Sans-serif" text-anchor="middle" xml:space="preserve" id="svg_44">BHKW</text>
  <text fill="#00007f" stroke="#00007f" stroke-width="0" stroke-linejoin="round" stroke-linecap="null" x="241.563137" y="341.913131" font-size="24" font-family="Sans-serif" text-anchor="middle" xml:space="preserve" font-weight="normal" font-style="normal" transform="matrix(0.714147 0 0 0.714147 112.207 137.825)" id="bhkw_electrical_power">bhkw_electrical_power</text>
  <text fill="#00007f" stroke="#00007f" stroke-width="0" stroke-linejoin="round" stroke-linecap="null" x="233.161501" y="-66.741117" font-size="24" font-family="Sans-serif" text-anchor="middle" xml:space="preserve" font-weight="normal" font-style="normal" transform="matrix(0.714147 0 0 0.714147 112.207 137.825)" id="elec_electric_consumption">elec_electric_consumption</text>
  <text fill="#00007f" stroke="#00007f" stroke-width="0" stroke-linejoin="round" stroke-linecap="null" x="67.929331" y="51.67415" font-size="24" font-family="Sans-serif" text-anchor="middle" xml:space="preserve" font-weight="normal" font-style="normal" transform="matrix(0.714147 0 0 0.714147 112.207 137.825)" id="elec_energy_infeed">elec_energy_infeed</text>
  <text fill="#00007f" stroke="#00007f" stroke-width="0" stroke-linejoin="round" stroke-linecap="null" x="164.548142" y="536.960847" font-size="24" font-family="Sans-serif" text-anchor="middle" xml:space="preserve" font-weight="normal" font-style="normal" transform="matrix(0.714147 0 0 0.714147 112.207 137.825)" id="elec_energy_external">elec_energy_external</text>
  <text fill="#7f0000" stroke="#7f0000" stroke-width="0" stroke-linejoin="round" stroke-linecap="null" x="645.238294" y="-79.570977" font-size="24" font-family="Sans-serif" text-anchor="middle" xml:space="preserve" font-weight="normal" font-style="normal" transform="matrix(0.714147 0 0 0.714147 112.207 137.825)" id="rad1_temperature">rad1_temperature</text>
  <text fill="#7f0000" stroke="#7f0000" stroke-width="0" stroke-linejoin="round" stroke-linecap="null" x="702.649473" y="175.260921" font-size="24" font-family="Sans-serif" text-anchor="middle" xml:space="preserve" font-weight="normal" font-style="normal" transform="matrix(0.714147 0 0 0.714147 112.207 137.825)" id="hs_temperature">hs_temperature</text>
  <line stroke-dasharray="5,5" id="svg_1" y2="470" x2="780.000018" y1="474" x1="-93" stroke-width="2" stroke="#b2b2b2" fill="none"/>
  <line fill="none" stroke="#b2b2b2" stroke-width="2" stroke-dasharray="5,5" stroke-linejoin="null" stroke-linecap="null" x1="-63.000025" y1="211" x2="768" y2="205" id="svg_16"/>
  <g id="heat_storage">
   <g id="svg_40">
    <ellipse fill="#e5e5e5" stroke="#000000" stroke-width="2" stroke-linejoin="round" stroke-linecap="null" cx="569" cy="380" rx="43" ry="21" id="svg_13"/>
    <rect fill="#e5e5e5" stroke="#000000" stroke-width="2" stroke-linejoin="round" stroke-linecap="null" x="526" y="298" width="86" height="78" id="svg_14"/>
   </g>
   <ellipse fill="#cccccc" stroke="#000000" stroke-width="2" stroke-linejoin="round" stroke-linecap="null" cx="569" cy="297" id="svg_12" rx="43" ry="21"/>
  </g>
  <g id="consumer">
   <rect fill="#cccccc" stroke="#cccccc" stroke-width="2" stroke-linejoin="null" stroke-linecap="null" x="538" y="137" width="57" height="22" id="svg_15"/>
   <rect fill="#cccccc" stroke="#191919" stroke-width="2" stroke-linejoin="null" stroke-linecap="null" x="531" y="94.000002" width="16" height="92.999998" id="svg_5" rx="9" ry="9"/>
   <rect fill="#cccccc" stroke="#191919" stroke-width="2" stroke-linejoin="null" stroke-linecap="null" x="559" y="94.500002" width="16" height="92.999998" rx="9" ry="9" id="svg_6"/>
   <rect fill="#cccccc" stroke="#191919" stroke-width="2" stroke-linejoin="null" stroke-linecap="null" x="587" y="94.500002" width="16" height="92.999998" rx="9" ry="9" id="svg_11"/>
  </g>
  <ellipse fill="#e5e5e5" stroke="#000000" stroke-width="0" stroke-linejoin="round" stroke-linecap="null" cx="569.999998" cy="375" rx="40.500003" ry="14" id="svg_18"/>
  <text transform="matrix(0.902778 0 0 0.851852 17.6944 61.8518)" fill="#999999" stroke="#7f0000" stroke-width="0" stroke-linejoin="round" stroke-linecap="null" x="611.786182" y="378.502719" font-size="24" font-family="Sans-serif" text-anchor="middle" xml:space="preserve" id="svg_17">HS</text>
  <line id="svg_2" fill="none" stroke="#00007f" stroke-width="4" stroke-linejoin="round" stroke-linecap="null" x1="230" y1="190.500018" x2="230" y2="501.499997"/>
  <line transform="rotate(90 161 189)" id="svg_3" fill="none" stroke="#00007f" stroke-width="4" stroke-linejoin="round" stroke-linecap="null" x1="161.000004" y1="119.499997" x2="161.000004" y2="258.500003"/>
  <path id="svg_4" fill="#aaaaff" stroke="#00007f" stroke-width="2" stroke-linejoin="round" stroke-linecap="null" d="m231,295.807678l-10,10.384644l20,0l-10,-10.384644z"/>
  <path transform="rotate(-87.9546 157 189)" id="svg_20" fill="#aaaaff" stroke="#00007f" stroke-width="2" stroke-linejoin="round" stroke-linecap="null" d="m157,183.807678l-10,10.384644l20,0l-10,-10.384644z"/>
  <g id="svg_29">
   <rect id="svg_23" height="86.457833" width="69.000002" y="105.987953" x="243" stroke-linecap="null" stroke-linejoin="round" stroke-width="2" stroke="#191919" fill="#cccccc"/>
   <ellipse ry="24.108434" rx="24.93976" id="svg_24" cy="156.698797" cx="276.253013" stroke-linecap="null" stroke-linejoin="round" stroke-width="2" stroke="#191919" fill="#b2b2b2"/>
   <ellipse ry="16.626506" rx="17.457832" id="svg_26" cy="156.698797" cx="276.253013" stroke-linecap="null" stroke-linejoin="round" stroke-width="2" stroke="#191919" fill="#cccccc"/>
   <rect id="svg_28" height="10.807229" width="51.542169" y="113.46988" x="250.897591" stroke-linecap="null" stroke-linejoin="round" stroke-width="2" stroke="#7f7f7f" fill="#e5e5e5"/>
  </g>
  <ellipse stroke="#00007f" ry="20.000001" rx="22" id="svg_30" cy="254.999999" cx="241" stroke-linecap="null" stroke-linejoin="round" stroke-width="4" fill="#aaaaff"/>
  <line fill="none" stroke="#999999" stroke-width="4" stroke-linejoin="round" stroke-linecap="null" x1="26" y1="191.000001" x2="48" y2="93.999998" id="svg_35"/>
  <line fill="none" stroke="#999999" stroke-width="4" stroke-linejoin="round" stroke-linecap="null" x1="71" y1="191.000003" x2="49.000001" y2="97" id="svg_36"/>
  <line fill="none" stroke="#999999" stroke-width="4" stroke-linejoin="round" stroke-linecap="null" x1="26.010752" y1="111.641291" x2="69.032293" y2="107.641291" id="svg_37" transform="rotate(3.43363 47.5215 109.641)"/>
  <line fill="none" stroke="#999999" stroke-width="4" stroke-linejoin="round" stroke-linecap="null" x1="25.510859" y1="117.637704" x2="68.412616" y2="113.637704" transform="rotate(3.43363 46.9617 115.638)" id="svg_38"/>
  <line fill="none" stroke="#999999" stroke-width="4" stroke-linejoin="round" stroke-linecap="null" x1="21.53209" y1="141.907614" x2="73.41769" y2="136.929373" transform="rotate(3.43363 47.4749 139.418)" id="svg_41"/>
  <line fill="none" stroke="#999999" stroke-width="4" stroke-linejoin="round" stroke-linecap="null" x1="18.498549" y1="149.048426" x2="75.115635" y2="145.048425" transform="rotate(3.43363 46.8071 147.048)" id="svg_43"/>
  <path stroke="#000000" id="svg_48" d="m717.353027,282.440002l46.667969,0l0,0c3.093018,0 6.059998,2.298889 8.247986,6.393524c2.187012,4.095581 3.416016,9.649445 3.416016,15.438904l0,109.167572c0,0 0,0 0,0l-70,0l0,0c0,0 0,0 0,0l0,-109.167572l0,0c0,-12.057465 5.224976,-21.832428 11.66803,-21.832428z" stroke-linecap="null" stroke-linejoin="null" stroke-dasharray="null" stroke-width="2" fill="#e5e5e5"/>
  <path id="svg_51" fill="#ffaaaa" stroke="#7f0000" stroke-width="2" stroke-linejoin="round" stroke-linecap="null" d="m659,354.807678l-10,10.384644l20,0l-10,-10.384644z" transform="rotate(-88.6028 659 360)"/>
  <text xml:space="preserve" text-anchor="middle" font-family="Sans-serif" font-size="17" id="plb_workload" y="370" x="742" stroke-linecap="null" stroke-linejoin="round" stroke-dasharray="null" stroke-width="0" stroke="#7f0000" fill="#000000">plb_workload</text>
  <path id="svg_54" fill="#aaffaa" stroke="#007f00" stroke-width="2" stroke-linejoin="round" stroke-linecap="null" d="m739.152649,447.160675l-10,10.384644l20,0l-10,-10.384644z" transform="rotate(1.68468 739.153 452.353)"/>
  <text id="plb_gas_input" fill="#007f00" stroke="#7f0000" stroke-width="0" stroke-linejoin="round" stroke-linecap="null" x="879.083923" y="531.770021" font-size="24" font-family="Sans-serif" text-anchor="middle" xml:space="preserve" font-weight="normal" font-style="normal" transform="matrix(0.714147 0 0 0.714147 112.207 137.825)">plb_gas_input</text>
  <path id="svg_57" d="m557.077637,337.587616c0.001831,-0.267334 0.241699,-1.914368 0.534668,-3.659363c0.915527,-5.438232 0.928345,-5.461121 2.089233,-3.728943l0.686646,1.025391l2.008667,-1.013489c2.658691,-1.341248 5.830078,-1.837463 8.745117,-1.367798c1.237793,0.198669 2.550659,0.522766 2.91687,0.719604c0.72876,0.390015 0.684814,0.726013 -0.477905,3.439636c-0.639038,1.487732 -0.699463,1.530762 -1.799927,1.247864c-1.873169,-0.482483 -4.923706,-0.32959 -6.394043,0.317688l-1.382446,0.60791l0.968628,1.010742c0.532837,0.556641 0.834961,1.094055 0.670166,1.196594c-0.161133,0.100708 -2.156982,0.298462 -4.431152,0.438538c-3.411255,0.209656 -4.134521,0.169373 -4.134521,-0.234375l0,0zm17.570801,14.994507l-1.479492,-1.956482l1.347656,-1.30188c1.382446,-1.340332 2.382202,-3.21991 2.823486,-5.315552l0.250854,-1.19751l-1.448364,0.231628c-0.79834,0.128174 -1.453857,0.110779 -1.459351,-0.036621c-0.027466,-0.689392 3.759155,-7.484436 4.129028,-7.404785c0.578613,0.124512 6.450806,5.211182 6.450806,5.589294c0,0.168457 -0.617065,0.404663 -1.37146,0.525513l-1.37146,0.218811l-0.135498,2.339172c-0.17395,3.000183 -1.75415,6.462708 -3.955078,8.663635c-0.880737,0.882568 -1.761475,1.602173 -1.953735,1.602173c-0.192261,0 -1.016235,-0.879822 -1.827393,-1.957397l0,0zm-13.342896,5.488586c0,-0.21698 0.232544,-0.843201 0.516357,-1.392517c0.512695,-0.994263 0.510864,-1.000671 -1.408081,-2.275085c-3.00293,-1.994019 -5.234985,-5.533447 -5.939941,-9.414368l-0.228882,-1.272583l1.640625,-0.22522c3.383789,-0.463257 3.414917,-0.449524 4.094238,1.856689c0.455933,1.556396 1.018066,2.488403 2.232056,3.701477c0.889893,0.891724 1.744995,1.543579 1.895142,1.44928c0.153809,-0.094299 0.375366,-0.650024 0.490723,-1.235962c0.117188,-0.585022 0.360718,-1.063843 0.541992,-1.063843c0.415649,0 4.335938,6.180725 4.398193,6.93512c0.042114,0.50354 -2.076416,1.376038 -7.598877,3.128357c-0.351563,0.111694 -0.633545,0.02655 -0.633545,-0.191345l0,0z" stroke-linecap="null" stroke-linejoin="round" stroke-dasharray="null" stroke-width="0" stroke="#7f0000" fill="#7f0000"/>
  <path id="svg_59" d="m233.644272,251.604736c0.00058,-0.17012 0.153046,-1.213013 0.338654,-2.317596c0.579224,-3.444153 0.587921,-3.459518 1.32341,-2.361633l0.434937,0.649673l1.272675,-0.642426c1.682709,-0.849777 3.691223,-1.164017 5.537415,-0.866821c0.783676,0.126373 1.615417,0.331345 1.847641,0.455719c0.462158,0.247299 0.432327,0.459778 -0.303543,2.179016c-0.403793,0.94249 -0.442383,0.968933 -1.139603,0.790054c-1.186081,-0.305023 -3.117477,-0.208801 -4.049881,0.201172l-0.87439,0.384979l0.613495,0.640457c0.337463,0.352249 0.528778,0.693161 0.424957,0.757263c-0.104019,0.064072 -1.367249,0.189575 -2.807556,0.278061c-2.160721,0.133301 -2.61879,0.107208 -2.61821,-0.147919l0,0zm11.127304,9.496155l-0.936142,-1.239746l0.852097,-0.824463c0.877289,-0.848114 1.510406,-2.039093 1.788757,-3.366699l0.159164,-0.757843l-0.917297,0.147064c-0.504456,0.080597 -0.920486,0.069824 -0.924286,-0.02356c-0.017685,-0.436401 2.381409,-4.739594 2.614471,-4.689407c0.366776,0.078568 4.086411,3.30043 4.086411,3.539261c0,0.106445 -0.390839,0.256287 -0.868851,0.332611l-0.868362,0.139099l-0.086044,1.481506c-0.109909,1.900116 -1.110992,4.093018 -2.505203,5.486969c-0.55809,0.55835 -1.114731,1.014893 -1.236786,1.014893c-0.122055,0 -0.643036,-0.5578 -1.157928,-1.239685l0,0zm-8.450211,3.474884c0,-0.136932 0.146988,-0.533417 0.326736,-0.88092c0.326157,-0.630707 0.324417,-0.633698 -0.891235,-1.440887c-1.902405,-1.262878 -3.31633,-3.505035 -3.761032,-5.962433l-0.145859,-0.806152l1.039902,-0.142426c2.142776,-0.293793 2.162491,-0.285248 2.591599,1.17569c0.289627,0.985535 0.645645,1.576172 1.413635,2.343933c0.564468,0.564697 1.105194,0.977753 1.201706,0.917877c0.096252,-0.059204 0.235992,-0.411682 0.309952,-0.782104c0.074158,-0.370636 0.228714,-0.67392 0.343811,-0.67392c0.263535,0 2.745804,3.91394 2.785492,4.391724c0.026154,0.318909 -1.315643,0.87149 -4.813202,1.981384c-0.222656,0.071198 -0.401505,0.016815 -0.401505,-0.121765l0,0z" stroke-linecap="null" stroke-linejoin="round" stroke-dasharray="null" stroke-width="0" stroke="#7f0000" fill="#00007f"/>
  <text fill="#7f0000" stroke="#7f0000" stroke-width="0" stroke-linejoin="round" stroke-linecap="null" x="496.805314" y="344.71209" font-size="24" font-family="Sans-serif" text-anchor="middle" xml:space="preserve" font-weight="normal" font-style="normal" transform="matrix(0.714147 0 0 0.714147 112.207 137.825)" id="bhkw_thermal_power">bhkw_thermal_power</text>
  <text style="cursor: move;" id="svg_62" transform="matrix(0.902778 0 0 0.851852 17.6944 61.8518)" fill="#999999" stroke="#7f0000" stroke-width="0" stroke-linejoin="round" stroke-linecap="null" x="800.098067" y="399.848802" font-size="24" font-family="Sans-serif" text-anchor="middle" xml:space="preserve">SLK</text>
  <text id="plb_thermal_power" fill="#7f0000" stroke="#7f0000" stroke-width="0" stroke-linejoin="round" stroke-linecap="null" x="769.86036" y="345.539184" font-size="24" font-family="Sans-serif" text-anchor="middle" xml:space="preserve" font-weight="normal" font-style="normal" transform="matrix(0.714147 0 0 0.714147 112.207 137.825)">plb_thermal_power</text>
 </g>
</svg>