<svg width="800" height="550" xmlns="http://www.w3.org/2000/svg" preserveAspectRatio="xMinYMin meet">
 <!-- Created with SVG-edit - http://svg-edit.googlecode.com/ -->
 <title>overview</title>
 <g>
  <title>Layer 1</title>
  <line transform="rotate(89.3905029296875 647.489990234375,359.0799865722657) " y2="418.594246" x2="647.490283" y1="299.565563" x1="647.490283" stroke-linecap="null" stroke-linejoin="round" stroke-width="5" fill="none" id="svg_50" stroke="#7c0000"/>
  <path fill="#cccccc" stroke-width="2" stroke-dasharray="null" stroke-linejoin="round" stroke-linecap="null" d="m695.585022,405.585083l16.875549,-122.005096l56.250244,0l16.874207,122.005096l-90,0z" id="svg_61" stroke="#000000"/>
  <line y2="497.500002" x2="740" y1="408.500002" x1="740" stroke-linecap="null" stroke-linejoin="round" stroke-width="5" fill="none" id="svg_53" stroke="#007f00"/>
  <line id="svg_21" y2="358" x2="252.999995" y1="358" x1="339.000007" stroke-linecap="null" stroke-linejoin="round" stroke-width="4" fill="none" stroke="#00007f"/>
  <line transform="rotate(89.3905029296875 458.01199340820307,357.6700134277344) " id="svg_19" y2="424.694652" x2="458.012443" y1="290.645539" x1="458.012443" stroke-linecap="null" stroke-linejoin="round" stroke-width="5" stroke="#7c0000" fill="none"/>
  <line id="svg_8" y2="459.999999" x2="374" y1="410" x1="374" stroke-linecap="null" stroke-linejoin="round" stroke-width="5" stroke="#007f00" fill="none"/>
  <g id="bhkw">
   <rect ry="11" rx="11" id="bhkw_back" height="130" width="86" y="282" x="331" stroke-width="2" stroke="#000000" fill="#cccccc"/>
   <rect id="bhkw_front" ry="4" rx="4" height="139" width="72" y="276.5" x="338" stroke-linecap="null" stroke-linejoin="round" stroke-width="2" stroke="#000000" fill="#e5e5e5"/>
  </g>
  <line id="svg_7" y2="461" x2="714.000007" y1="461" x1="355.000029" stroke-linecap="null" stroke-linejoin="round" stroke-width="0" stroke="#7f0000" fill="none"/>
  <line id="svg_9" y2="461.999999" x2="721" y1="420" x1="721" stroke-linecap="null" stroke-linejoin="round" stroke-width="0" stroke="#7f0000" fill="none"/>
  <path id="svg_39" transform="rotate(1.6846799850463867 373.99999999999847,450.00000000000006) " d="m374,444.807678l-10,10.384644l20,0l-10,-10.384644z" stroke-linecap="null" stroke-linejoin="round" stroke-width="2" stroke="#007f00" fill="#aaffaa"/>
  <line id="svg_10" y2="500" x2="374" y1="458" x1="374" stroke-linecap="null" stroke-linejoin="round" stroke-width="5" stroke="#007f00" fill="none"/>
  <line id="svg_22" y2="358.999998" x2="252" y1="191.999997" x1="252" stroke-linecap="null" stroke-linejoin="round" stroke-width="4" stroke="#00007f" fill="none"/>
  <ellipse ry="1" id="svg_25" cy="192" cx="65" stroke-linecap="null" stroke-linejoin="round" stroke-width="4" stroke="#00007f" fill="none"/>
  <line id="svg_27" y2="193" x2="567" y1="279" x1="567" stroke-linecap="null" stroke-linejoin="round" stroke-width="4" stroke="#7f0000" fill="none"/>
  <path id="svg_34" d="m252,295.807678l-10,10.384644l20,0l-10,-10.384644z" stroke-linecap="null" stroke-linejoin="round" stroke-width="2" stroke="#00007f" fill="#aaaaff"/>
  <path transform="rotate(90 470,357.00000000000006) " id="svg_3_35" d="m470,351.807678l-10,10.384644l20,0l-10,-10.384644z" stroke-linecap="null" stroke-linejoin="round" stroke-width="2" stroke="#7f0000" fill="#ffaaaa"/>
  <path id="svg_42" d="m567,231.807693l-10,10.384613l20,0l-10,-10.384613z" stroke-linecap="null" stroke-linejoin="round" stroke-width="2" stroke="#7f0000" fill="#ffaaaa"/>
  <text id="svg_45" xml:space="preserve" text-anchor="middle" font-family="Sans-serif" font-size="24" y="381.5" x="571" stroke-linecap="null" stroke-linejoin="round" stroke-width="0" stroke="#7f0000" fill="#999999">HS</text>
  <text id="bhkw_gas_input" transform="matrix(0.7141470000000001,0,0,0.7141470000000001,106.207,136.82500000000002) " font-style="normal" font-weight="normal" xml:space="preserve" text-anchor="middle" font-family="Sans-serif" font-size="24" y="536.546813" x="379.184441" stroke-linecap="null" stroke-linejoin="round" stroke-width="0" stroke="#7f0000" fill="#007f00">bhkw_gas_input</text>
  <text id="svg_44" xml:space="preserve" text-anchor="middle" font-family="Sans-serif" font-size="24" y="400.76087" x="394.123075" stroke-linecap="null" stroke-linejoin="round" stroke-width="0" stroke="#7f0000" fill="#999999" transform="matrix(0.902778,0,0,0.851852,17.6944,61.8518) ">BHKW</text>
  <text id="bhkw_electrical_power" transform="matrix(0.714147,0,0,0.714147,112.207,137.825) " font-style="normal" font-weight="normal" xml:space="preserve" text-anchor="middle" font-family="Sans-serif" font-size="24" y="341.913131" x="241.563137" stroke-linecap="null" stroke-linejoin="round" stroke-width="0" stroke="#00007f" fill="#00007f">bhkw_electrical_power</text>
  <text id="elec_electric_consumption" transform="matrix(0.714147,0,0,0.714147,112.207,137.825) " font-style="normal" font-weight="normal" xml:space="preserve" text-anchor="middle" font-family="Sans-serif" font-size="24" y="-66.741117" x="233.161501" stroke-linecap="null" stroke-linejoin="round" stroke-width="0" stroke="#00007f" fill="#00007f">elec_electric_consumption</text>
  <text id="elec_energy_infeed" transform="matrix(0.7141470000000001,0,0,0.7141470000000001,111.207,118.825) " font-style="normal" font-weight="normal" xml:space="preserve" text-anchor="middle" font-family="Sans-serif" font-size="24" y="51.67415" x="67.929331" stroke-linecap="null" stroke-linejoin="round" stroke-width="0" stroke="#00007f" fill="#00007f">elec_energy_infeed</text>
  <text id="elec_energy_external" transform="matrix(0.7141470000000001,0,0,0.7141470000000001,55.207,118.825) " font-style="normal" font-weight="normal" xml:space="preserve" text-anchor="middle" font-family="Sans-serif" font-size="24" y="562.165742" x="234.561739" stroke-linecap="null" stroke-linejoin="round" stroke-width="0" stroke="#00007f" fill="#00007f">elec_energy_external</text>
  <text id="rad_temperature" transform="matrix(0.714147,0,0,0.714147,112.207,137.825) " font-style="normal" font-weight="normal" xml:space="preserve" text-anchor="middle" font-family="Sans-serif" font-size="24" y="-79.570977" x="645.238294" stroke-linecap="null" stroke-linejoin="round" stroke-width="0" stroke="#7f0000" fill="#7f0000">rad_temperature</text>
  <text id="hs_temperature" transform="matrix(0.714147,0,0,0.714147,112.207,137.825) " font-style="normal" font-weight="normal" xml:space="preserve" text-anchor="middle" font-family="Sans-serif" font-size="24" y="175.260921" x="702.649473" stroke-linecap="null" stroke-linejoin="round" stroke-width="0" stroke="#7f0000" fill="#7f0000">hs_temperature</text>
  <line fill="none" stroke="#b2b2b2" stroke-width="2" x1="-93" y1="474" x2="780.000018" y2="470" id="svg_1" stroke-dasharray="5,5"/>
  <line id="svg_16" y2="205" x2="768" y1="211" x1="-63.000025" stroke-linecap="null" stroke-linejoin="null" stroke-dasharray="5,5" stroke-width="2" stroke="#b2b2b2" fill="none"/>
  <g id="heat_storage">
   <g id="svg_40">
    <ellipse id="svg_13" ry="21" rx="43" cy="380" cx="569" stroke-linecap="null" stroke-linejoin="round" stroke-width="2" stroke="#000000" fill="#e5e5e5"/>
    <rect id="svg_14" height="78" width="86" y="298" x="526" stroke-linecap="null" stroke-linejoin="round" stroke-width="2" stroke="#000000" fill="#e5e5e5"/>
   </g>
   <ellipse ry="21" rx="43" id="svg_12" cy="297" cx="569" stroke-linecap="null" stroke-linejoin="round" stroke-width="2" stroke="#000000" fill="#cccccc"/>
  </g>
  <g id="consumer">
   <rect id="svg_15" height="22" width="57" y="137" x="538" stroke-linecap="null" stroke-linejoin="null" stroke-width="2" stroke="#cccccc" fill="#cccccc"/>
   <rect ry="9" rx="9" id="svg_5" height="92.999998" width="16" y="94.000002" x="531" stroke-linecap="null" stroke-linejoin="null" stroke-width="2" stroke="#191919" fill="#cccccc"/>
   <rect id="svg_6" ry="9" rx="9" height="92.999998" width="16" y="94.500002" x="559" stroke-linecap="null" stroke-linejoin="null" stroke-width="2" stroke="#191919" fill="#cccccc"/>
   <rect id="svg_11" ry="9" rx="9" height="92.999998" width="16" y="94.500002" x="587" stroke-linecap="null" stroke-linejoin="null" stroke-width="2" stroke="#191919" fill="#cccccc"/>
  </g>
  <ellipse id="svg_18" ry="14" rx="40.500003" cy="375" cx="569.999998" stroke-linecap="null" stroke-linejoin="round" stroke-width="0" stroke="#000000" fill="#e5e5e5"/>
  <text id="svg_17" xml:space="preserve" text-anchor="middle" font-family="Sans-serif" font-size="24" y="378.502719" x="611.786182" stroke-linecap="null" stroke-linejoin="round" stroke-width="0" stroke="#7f0000" fill="#999999" transform="matrix(0.902778,0,0,0.851852,17.6944,61.8518) ">HS</text>
  <line y2="501.499997" x2="230" y1="174.500028" x1="230" stroke-linecap="null" stroke-linejoin="round" stroke-width="4" stroke="#00007f" fill="none" id="svg_2"/>
  <line y2="241.500003" x2="161.000004" y1="102.499997" x1="161.000004" stroke-linecap="null" stroke-linejoin="round" stroke-width="4" stroke="#00007f" fill="none" id="svg_3" transform="rotate(90 161,172.00000000000003) "/>
  <path d="m231,295.807678l-10,10.384644l20,0l-10,-10.384644z" stroke-linecap="null" stroke-linejoin="round" stroke-width="2" stroke="#00007f" fill="#aaaaff" id="svg_4"/>
  <path d="m157,167.807678l-10,10.384644l20,0l-10,-10.384644z" stroke-linecap="null" stroke-linejoin="round" stroke-width="2" stroke="#00007f" fill="#aaaaff" id="svg_20" transform="rotate(-87.95459747314453 156.99999999999997,172.99999999999997) "/>
  <g id="svg_29">
   <rect fill="#cccccc" stroke="#191919" stroke-width="2" stroke-linejoin="round" stroke-linecap="null" x="243" y="105.987953" width="69.000002" height="86.457833" id="svg_23"/>
   <ellipse fill="#b2b2b2" stroke="#191919" stroke-width="2" stroke-linejoin="round" stroke-linecap="null" cx="276.253013" cy="156.698797" id="svg_24" rx="24.93976" ry="24.108434"/>
   <ellipse fill="#cccccc" stroke="#191919" stroke-width="2" stroke-linejoin="round" stroke-linecap="null" cx="276.253013" cy="156.698797" id="svg_26" rx="17.457832" ry="16.626506"/>
   <rect fill="#e5e5e5" stroke="#7f7f7f" stroke-width="2" stroke-linejoin="round" stroke-linecap="null" x="250.897591" y="113.46988" width="51.542169" height="10.807229" id="svg_28"/>
  </g>
  <ellipse fill="#aaaaff" stroke-width="4" stroke-linejoin="round" stroke-linecap="null" cx="241" cy="254.999999" id="svg_30" rx="22" ry="20.000001" stroke="#00007f"/>
  <line id="svg_35" y2="93.999998" x2="48" y1="191.000001" x1="26" stroke-linecap="null" stroke-linejoin="round" stroke-width="4" stroke="#999999" fill="none"/>
  <line id="svg_36" y2="97" x2="49.000001" y1="191.000003" x1="71" stroke-linecap="null" stroke-linejoin="round" stroke-width="4" stroke="#999999" fill="none"/>
  <line transform="rotate(3.4336299896240234 47.52149963378852,109.64099884033212) " id="svg_37" y2="107.641291" x2="69.032293" y1="111.641291" x1="26.010752" stroke-linecap="null" stroke-linejoin="round" stroke-width="4" stroke="#999999" fill="none"/>
  <line id="svg_38" transform="rotate(3.4336299896240234 46.961700439452855,115.63800048828129) " y2="113.637704" x2="68.412616" y1="117.637704" x1="25.510859" stroke-linecap="null" stroke-linejoin="round" stroke-width="4" stroke="#999999" fill="none"/>
  <line id="svg_41" transform="rotate(3.4336299896240234 47.47489929199199,139.4179992675782) " y2="136.929373" x2="73.41769" y1="141.907614" x1="21.53209" stroke-linecap="null" stroke-linejoin="round" stroke-width="4" stroke="#999999" fill="none"/>
  <line id="svg_43" transform="rotate(3.4336299896240234 46.807098388672415,147.04800415039057) " y2="145.048425" x2="75.115635" y1="149.048426" x1="18.498549" stroke-linecap="null" stroke-linejoin="round" stroke-width="4" stroke="#999999" fill="none"/>
  <path fill="#e5e5e5" stroke-width="2" stroke-dasharray="null" stroke-linejoin="null" stroke-linecap="null" d="m717.353027,282.440002l46.667969,0l0,0c3.093018,0 6.059998,2.298889 8.247986,6.393524c2.187012,4.095581 3.416016,9.649445 3.416016,15.438904l0,109.167572c0,0 0,0 0,0l-70,0l0,0c0,0 0,0 0,0l0,-109.167572l0,0c0,-12.057465 5.224976,-21.832428 11.66803,-21.832428z" id="svg_48" stroke="#000000"/>
  <path transform="rotate(-88.60279846191406 659,359.99999999999994) " d="m659,354.807678l-10,10.384644l20,0l-10,-10.384644z" stroke-linecap="null" stroke-linejoin="round" stroke-width="2" stroke="#7f0000" fill="#ffaaaa" id="svg_51"/>
  <text fill="#000000" stroke="#7f0000" stroke-width="0" stroke-dasharray="null" stroke-linejoin="round" stroke-linecap="null" x="742" y="370" id="plb_workload" font-size="17" font-family="Sans-serif" text-anchor="middle" xml:space="preserve">plb_workload</text>
  <path transform="rotate(1.6846799850463867 739.1530151367198,452.35299682616983) " d="m739.152649,447.160675l-10,10.384644l20,0l-10,-10.384644z" stroke-linecap="null" stroke-linejoin="round" stroke-width="2" stroke="#007f00" fill="#aaffaa" id="svg_54"/>
  <text transform="matrix(0.714147,0,0,0.714147,112.207,137.825) " font-style="normal" font-weight="normal" xml:space="preserve" text-anchor="middle" font-family="Sans-serif" font-size="24" y="531.770021" x="879.083923" stroke-linecap="null" stroke-linejoin="round" stroke-width="0" stroke="#7f0000" fill="#007f00" id="plb_gas_input">plb_gas_input</text>
  <path fill="#7f0000" stroke="#7f0000" stroke-width="0" stroke-dasharray="null" stroke-linejoin="round" stroke-linecap="null" d="m557.077637,337.587616c0.001831,-0.267334 0.241699,-1.914368 0.534668,-3.659363c0.915527,-5.438232 0.928345,-5.461121 2.089233,-3.728943l0.686646,1.025391l2.008667,-1.013489c2.658691,-1.341248 5.830078,-1.837463 8.745117,-1.367798c1.237793,0.198669 2.550659,0.522766 2.91687,0.719604c0.72876,0.390015 0.684814,0.726013 -0.477905,3.439636c-0.639038,1.487732 -0.699463,1.530762 -1.799927,1.247864c-1.873169,-0.482483 -4.923706,-0.32959 -6.394043,0.317688l-1.382446,0.60791l0.968628,1.010742c0.532837,0.556641 0.834961,1.094055 0.670166,1.196594c-0.161133,0.100708 -2.156982,0.298462 -4.431152,0.438538c-3.411255,0.209656 -4.134521,0.169373 -4.134521,-0.234375l0,0zm17.570801,14.994507l-1.479492,-1.956482l1.347656,-1.30188c1.382446,-1.340332 2.382202,-3.21991 2.823486,-5.315552l0.250854,-1.19751l-1.448364,0.231628c-0.79834,0.128174 -1.453857,0.110779 -1.459351,-0.036621c-0.027466,-0.689392 3.759155,-7.484436 4.129028,-7.404785c0.578613,0.124512 6.450806,5.211182 6.450806,5.589294c0,0.168457 -0.617065,0.404663 -1.37146,0.525513l-1.37146,0.218811l-0.135498,2.339172c-0.17395,3.000183 -1.75415,6.462708 -3.955078,8.663635c-0.880737,0.882568 -1.761475,1.602173 -1.953735,1.602173c-0.192261,0 -1.016235,-0.879822 -1.827393,-1.957397l0,0zm-13.342896,5.488586c0,-0.21698 0.232544,-0.843201 0.516357,-1.392517c0.512695,-0.994263 0.510864,-1.000671 -1.408081,-2.275085c-3.00293,-1.994019 -5.234985,-5.533447 -5.939941,-9.414368l-0.228882,-1.272583l1.640625,-0.22522c3.383789,-0.463257 3.414917,-0.449524 4.094238,1.856689c0.455933,1.556396 1.018066,2.488403 2.232056,3.701477c0.889893,0.891724 1.744995,1.543579 1.895142,1.44928c0.153809,-0.094299 0.375366,-0.650024 0.490723,-1.235962c0.117188,-0.585022 0.360718,-1.063843 0.541992,-1.063843c0.415649,0 4.335938,6.180725 4.398193,6.93512c0.042114,0.50354 -2.076416,1.376038 -7.598877,3.128357c-0.351563,0.111694 -0.633545,0.02655 -0.633545,-0.191345l0,0z" id="svg_57"/>
  <path fill="#00007f" stroke="#7f0000" stroke-width="0" stroke-dasharray="null" stroke-linejoin="round" stroke-linecap="null" d="m233.644272,251.604736c0.00058,-0.17012 0.153046,-1.213013 0.338654,-2.317596c0.579224,-3.444153 0.587921,-3.459518 1.32341,-2.361633l0.434937,0.649673l1.272675,-0.642426c1.682709,-0.849777 3.691223,-1.164017 5.537415,-0.866821c0.783676,0.126373 1.615417,0.331345 1.847641,0.455719c0.462158,0.247299 0.432327,0.459778 -0.303543,2.179016c-0.403793,0.94249 -0.442383,0.968933 -1.139603,0.790054c-1.186081,-0.305023 -3.117477,-0.208801 -4.049881,0.201172l-0.87439,0.384979l0.613495,0.640457c0.337463,0.352249 0.528778,0.693161 0.424957,0.757263c-0.104019,0.064072 -1.367249,0.189575 -2.807556,0.278061c-2.160721,0.133301 -2.61879,0.107208 -2.61821,-0.147919l0,0zm11.127304,9.496155l-0.936142,-1.239746l0.852097,-0.824463c0.877289,-0.848114 1.510406,-2.039093 1.788757,-3.366699l0.159164,-0.757843l-0.917297,0.147064c-0.504456,0.080597 -0.920486,0.069824 -0.924286,-0.02356c-0.017685,-0.436401 2.381409,-4.739594 2.614471,-4.689407c0.366776,0.078568 4.086411,3.30043 4.086411,3.539261c0,0.106445 -0.390839,0.256287 -0.868851,0.332611l-0.868362,0.139099l-0.086044,1.481506c-0.109909,1.900116 -1.110992,4.093018 -2.505203,5.486969c-0.55809,0.55835 -1.114731,1.014893 -1.236786,1.014893c-0.122055,0 -0.643036,-0.5578 -1.157928,-1.239685l0,0zm-8.450211,3.474884c0,-0.136932 0.146988,-0.533417 0.326736,-0.88092c0.326157,-0.630707 0.324417,-0.633698 -0.891235,-1.440887c-1.902405,-1.262878 -3.31633,-3.505035 -3.761032,-5.962433l-0.145859,-0.806152l1.039902,-0.142426c2.142776,-0.293793 2.162491,-0.285248 2.591599,1.17569c0.289627,0.985535 0.645645,1.576172 1.413635,2.343933c0.564468,0.564697 1.105194,0.977753 1.201706,0.917877c0.096252,-0.059204 0.235992,-0.411682 0.309952,-0.782104c0.074158,-0.370636 0.228714,-0.67392 0.343811,-0.67392c0.263535,0 2.745804,3.91394 2.785492,4.391724c0.026154,0.318909 -1.315643,0.87149 -4.813202,1.981384c-0.222656,0.071198 -0.401505,0.016815 -0.401505,-0.121765l0,0z" id="svg_59"/>
  <text id="bhkw_thermal_power" transform="matrix(0.714147,0,0,0.714147,112.207,137.825) " font-style="normal" font-weight="normal" xml:space="preserve" text-anchor="middle" font-family="Sans-serif" font-size="24" y="344.71209" x="496.805314" stroke-linecap="null" stroke-linejoin="round" stroke-width="0" stroke="#7f0000" fill="#7f0000">bhkw_thermal_power</text>
  <text xml:space="preserve" text-anchor="middle" font-family="Sans-serif" font-size="24" y="399.848802" x="800.098067" stroke-linecap="null" stroke-linejoin="round" stroke-width="0" stroke="#7f0000" fill="#999999" transform="matrix(0.902778,0,0,0.851852,17.6944,61.8518) " id="svg_62">SLK</text>
  <text transform="matrix(0.714147,0,0,0.714147,112.207,137.825) " font-style="normal" font-weight="normal" xml:space="preserve" text-anchor="middle" font-family="Sans-serif" font-size="24" y="345.539184" x="769.86036" stroke-linecap="null" stroke-linejoin="round" stroke-width="0" stroke="#7f0000" fill="#7f0000" id="plb_thermal_power">plb_thermal_power</text>
  <text transform="matrix(0.6868271369253165,0,0,0.6868271369253165,81.7085706510151,161.17547646708138) " xml:space="preserve" text-anchor="middle" font-family="Sans-serif" font-size="24" id="bhkw_gas_cost" y="545.51497" x="420.470938" stroke-width="0" stroke="#7f0000" fill="#007f00">bhkw_gas_cost</text>
  <text transform="matrix(0.7360405921936035,0,0,0.7360405921936035,76.94416737556458,142.2741208076477) " xml:space="preserve" text-anchor="middle" font-family="Sans-serif" font-size="24" id="elec_external_cost" y="534" x="187.565517" stroke-width="0" stroke="#00007f" fill="#00007f">elec_external_cost</text>
  <text transform="matrix(0.5962441563606262,0,0,0.7037037014961243,82.16431418061256,63.70370417833328) " xml:space="preserve" text-anchor="middle" font-family="Sans-serif" font-size="24" id="elec_infeed_reward" y="191.526316" x="118.803149" stroke-width="0" stroke="#00007f" fill="#00007f">elec_infeed_reward</text>
  <text transform="matrix(0.6978417038917542,0,0,0.6666666865348816,229.79138419032097,178.33332270383835) " xml:space="preserve" text-anchor="middle" font-family="Sans-serif" font-size="24" id="plb_gas_cost" y="533" x="725.391754" stroke-width="0" stroke="#7f0000" fill="#007f00">plb_gas_cost</text>
  <text transform="matrix(0.5351932698046653,0,0,0.740740716457367,98.24762780831735,50.555560290813446) " xml:space="preserve" text-anchor="middle" font-family="Sans-serif" font-size="24" id="elec_consumption_reward" y="190" x="565.687948" stroke-width="0" stroke="#00007f" fill="#00007f">elec_consumption_reward</text>
 </g>
</svg>