<?xml version="1.0" encoding="UTF-8" standalone="no"?>
<!-- Created with Inkscape (http://www.inkscape.org/) -->

<svg
   xmlns:dc="http://purl.org/dc/elements/1.1/"
   xmlns:cc="http://creativecommons.org/ns#"
   xmlns:rdf="http://www.w3.org/1999/02/22-rdf-syntax-ns#"
   xmlns:svg="http://www.w3.org/2000/svg"
   xmlns="http://www.w3.org/2000/svg"
   xmlns:sodipodi="http://sodipodi.sourceforge.net/DTD/sodipodi-0.dtd"
   xmlns:inkscape="http://www.inkscape.org/namespaces/inkscape"
   width="610.19623"
   height="583.99152"
   id="svg4028"
   version="1.1"
   inkscape:version="0.48.4 r9939"
   sodipodi:docname="maintenance.svg">
  <defs
     id="defs4030" />
  <sodipodi:namedview
     id="base"
     pagecolor="#ffffff"
     bordercolor="#666666"
     borderopacity="1.0"
     inkscape:pageopacity="0.0"
     inkscape:pageshadow="2"
     inkscape:zoom="0.50383782"
     inkscape:cx="-35.30515"
     inkscape:cy="454.73858"
     inkscape:document-units="px"
     inkscape:current-layer="layer1"
     showgrid="false"
     inkscape:window-width="1366"
     inkscape:window-height="719"
     inkscape:window-x="0"
     inkscape:window-y="0"
     inkscape:window-maximized="1"
     fit-margin-top="0"
     fit-margin-left="0"
     fit-margin-right="0"
     fit-margin-bottom="0" />
  <metadata
     id="metadata4033">
    <rdf:RDF>
      <cc:Work
         rdf:about="">
        <dc:format>image/svg+xml</dc:format>
        <dc:type
           rdf:resource="http://purl.org/dc/dcmitype/StillImage" />
        <dc:title></dc:title>
      </cc:Work>
    </rdf:RDF>
  </metadata>
  <g
     inkscape:label="Layer 1"
     inkscape:groupmode="layer"
     id="layer1"
     transform="translate(-72.894986,-306.27813)">
    <g
       id="g4676"
       transform="matrix(0.99960807,-0.02799466,0.02799466,0.99960807,-24.413179,4.404792)">
      <path
         inkscape:connector-curvature="0"
         id="path4036-2"
         d="m 652.88488,324.69648 c -15.52765,-3.10802 -32.08815,1.00215 -44.44847,12.61392 -2.23043,2.09534 -4.24367,4.3794 -6.01763,6.7614 l -298.91701,280.81439 16.2677,17.95012 -141.79268,136.21262 -14.81416,-16.14993 -63.783703,89.92147 33.008353,35.12307 94.59944,-55.53773 -12.78583,-13.94435 142.85705,-134.45341 17.54948,19.38505 4.4613,-4.14635 297.22978,-279.24981 -0.82411,-0.88466 c 1.36071,-1.03968 2.70134,-2.14587 3.97798,-3.34512 20.81737,-19.55666 21.77867,-52.99166 2.16597,-74.65175 -7.96767,-8.79941 -18.10928,-14.29238 -28.73346,-16.41893 z"
         style="fill:#aaaaaa;fill-opacity:1;stroke:#000000;stroke-width:1.06218803px;stroke-linecap:butt;stroke-linejoin:miter;stroke-opacity:1"
         sodipodi:nodetypes="sscccccccccccccccss" />
      <path
         sodipodi:nodetypes="cccccc"
         inkscape:connector-curvature="0"
         id="path4656"
         d="M 615.8861,363.51245 399.29312,569.65794 c -2.90024,16.17892 3.59814,16.38328 12.27057,12.89243 L 629.01617,375.58685 C 633.1557,363.45662 626.2304,361.8575 616.7456,362.69441 z"
         style="fill:#ffffff;fill-opacity:1;stroke:#000000;stroke-width:0.59783256px;stroke-linecap:butt;stroke-linejoin:miter;stroke-opacity:1" />
      <path
         sodipodi:nodetypes="cccccc"
         inkscape:connector-curvature="0"
         id="path4656-9"
         d="M 645.29536,390.67271 428.70238,596.8182 c -2.90024,16.17892 3.59814,16.38328 12.27057,12.89243 L 658.42543,402.74711 c 4.13953,-12.13023 -2.78577,-13.72935 -12.27057,-12.89244 z"
         style="fill:#ffffff;fill-opacity:1;stroke:#000000;stroke-width:0.59783256px;stroke-linecap:butt;stroke-linejoin:miter;stroke-opacity:1" />
    </g>
    <rect
       style="fill:#ffffff;fill-opacity:1;fill-rule:evenodd;stroke:none"
       id="rect4722"
       width="141.73135"
       height="512.67041"
       x="-267.36621"
       y="507.9408"
       transform="matrix(0.70716322,-0.70705034,0.73958603,0.67306204,0,0)"
       rx="17.143364" />
    <path
       style="fill:#9a9a9a;fill-opacity:1;stroke:#000000;stroke-width:0.99966228px;stroke-linecap:butt;stroke-linejoin:miter;stroke-opacity:1"
       d="m 74.04932,464.28243 c -5.45274,34.48356 24.18969,69.4326 50.80785,91.11008 44.72951,36.42711 100.27367,41.22305 145.51127,18.23929 l 324.0011,299.85971 0.82749,-0.82206 c 1.03123,1.2365 2.10237,2.43528 3.27834,3.58368 19.1769,18.72725 50.35397,17.88474 69.61956,-1.84343 19.26557,-19.72815 19.33774,-50.86591 0.16083,-69.59315 -2.05466,-2.00649 -4.28375,-3.79712 -6.58426,-5.35579 L 338.41885,500.36347 c 23.44711,-50.31973 18.56492,-106.67949 -18.41089,-144.60732 -32.93422,-33.78217 -98.11873,-73.93928 -134.03705,-28.93813 6.18371,4.69453 16.72597,15.61726 23.01693,21.76701 l 25.76634,25.19587 c 26.93458,26.32996 40.89315,53.643 33.40313,63.09641 -15.4489,19.49855 -38.03731,41.41511 -62.57594,64.00481 -8.87351,8.16876 -36.91182,-5.61126 -63.8464,-31.94122 l -25.76634,-25.19588 c -6.4455,-6.30082 -12.19856,-12.6809 -17.11061,-18.89681 -15.15815,12.52661 -22.67502,25.94066 -24.8087,39.43422 z"
       id="path4036"
       inkscape:connector-curvature="0"
       sodipodi:nodetypes="sscccsssccscccsscccs" />
  </g>
</svg>
